<svg width="82" height="78" viewBox="0 0 82 78" fill="none" xmlns="http://www.w3.org/2000/svg">
<ellipse cx="41" cy="39" rx="41" ry="38.5" fill="#EC1F46"/>
<path d="M11.2211 52.9154C17.256 41.4373 22.9556 29.4649 29.8164 18.4834C31.8848 15.1726 32.1541 18.4514 33.2575 20.8629C35.3733 25.4872 34.0816 29.318 35.1766 33.9498C35.8106 36.6317 38.5075 36.892 38.6177 40.0384C38.6947 42.2373 39.4706 43.449 39.8089 45.3572C40.0162 46.5264 43.1242 48.7233 44.0441 49.6961C48.0835 53.968 47.6331 45.1391 48.147 42.5578C49.0697 37.9225 54.4151 32.0655 57.1468 28.3511C59.6763 24.9118 61.3463 20.7959 64.1614 17.6436C65.3878 16.2704 66.1067 14.6872 67.2055 13.2346C69.1458 10.6696 70.779 24.5672 70.779 25.7617C70.779 30.9441 64.1889 61.3979 69.5878 64.2528" stroke="white" stroke-width="3" stroke-linecap="round"/>
</svg>
